<svg width="34" height="37" viewBox="0 0 34 37" fill="none" xmlns="http://www.w3.org/2000/svg">
<path d="M32.6399 28.7298C32.0461 29.9794 31.3433 31.1296 30.529 32.1871C29.419 33.6288 28.5102 34.6267 27.8098 35.1808C26.7241 36.0904 25.5608 36.5562 24.3151 36.5827C23.4209 36.5827 22.3424 36.3509 21.087 35.8807C19.8275 35.4126 18.6701 35.1808 17.6117 35.1808C16.5018 35.1808 15.3114 35.4126 14.038 35.8807C12.7628 36.3509 11.7355 36.596 10.95 36.6203C9.75548 36.6666 8.56482 36.1875 7.37633 35.1808C6.61778 34.5781 5.66898 33.5449 4.53236 32.0812C3.31285 30.5181 2.31025 28.7056 1.52479 26.6391C0.683598 24.4071 0.261909 22.2458 0.261909 20.1533C0.261909 17.7564 0.830462 15.689 1.96926 13.9566C2.86426 12.5651 4.05493 11.4674 5.54514 10.6616C7.03535 9.8558 8.64552 9.44517 10.3795 9.41889C11.3283 9.41889 12.5726 9.68625 14.1187 10.2117C15.6606 10.7389 16.6506 11.0062 17.0846 11.0062C17.4091 11.0062 18.5089 10.6936 20.3733 10.0704C22.1364 9.49241 23.6244 9.25309 24.8435 9.34736C28.1467 9.59021 30.6283 10.7764 32.2787 12.9135C29.3245 14.5441 27.8631 16.828 27.8922 19.7579C27.9189 22.04 28.8277 23.9391 30.6138 25.447C31.4233 26.1468 32.3272 26.6877 33.333 27.0718C33.1149 27.6481 32.8846 28.2 32.6399 28.7298V28.7298ZM25.064 1.57264C25.064 3.36136 24.3466 5.03148 22.9168 6.57733C21.1912 8.41504 19.1041 9.47696 16.8408 9.30939C16.812 9.0948 16.7953 8.86895 16.7953 8.63162C16.7953 6.91445 17.6159 5.07674 19.0731 3.57417C19.8006 2.81338 20.7259 2.18081 21.848 1.67619C22.9677 1.17909 24.0267 0.904192 25.0228 0.857117C25.0519 1.09624 25.064 1.33538 25.064 1.57262V1.57264Z" fill="#DFDFDF"/>
</svg>
