<svg width="38" height="37" viewBox="0 0 38 37" fill="none" xmlns="http://www.w3.org/2000/svg">
<path fill-rule="evenodd" clip-rule="evenodd" d="M37.5157 19.1467C37.5157 17.8787 37.3955 16.6594 37.1721 15.4888H19.3739V22.4063H29.5443C29.1062 24.6417 27.7748 26.5357 25.7733 27.8038V32.2908H31.8807C35.4541 29.1775 37.5157 24.593 37.5157 19.1467Z" fill="#DFDFDF"/>
<path fill-rule="evenodd" clip-rule="evenodd" d="M19.374 36.6231C24.4764 36.6231 28.7542 35.0218 31.8809 32.2905L25.7735 27.8035C24.0813 28.8765 21.9166 29.5105 19.374 29.5105C14.452 29.5105 10.2859 26.3647 8.79987 22.1378H2.48631V26.7712C5.59585 32.6157 11.9867 36.6231 19.374 36.6231Z" fill="#DFDFDF"/>
<path fill-rule="evenodd" clip-rule="evenodd" d="M8.79979 22.1381C8.42183 21.0651 8.20709 19.919 8.20709 18.7403C8.20709 17.5616 8.42183 16.4155 8.79979 15.3425V10.7092H2.48622C1.20633 13.1234 0.476191 15.8546 0.476191 18.7403C0.476191 21.626 1.20633 24.3572 2.48622 26.7714L8.79979 22.1381Z" fill="#DFDFDF"/>
<path fill-rule="evenodd" clip-rule="evenodd" d="M19.374 7.96971C22.1486 7.96971 24.6396 8.872 26.5981 10.6441L32.0183 5.51485C28.7456 2.62917 24.4678 0.857117 19.374 0.857117C11.9867 0.857117 5.59585 4.86456 2.48631 10.7091L8.79987 15.3424C10.2859 11.1155 14.452 7.96971 19.374 7.96971Z" fill="#DFDFDF"/>
</svg>
