<svg width="130" height="51" viewBox="0 0 130 51" fill="none" xmlns="http://www.w3.org/2000/svg">
<path d="M18.1728 0C20.8591 0.0553893 23.5354 0.345358 26.171 0.866587C29.2716 1.4613 32.1776 3.45178 33.5272 6.35012C34.1133 7.63179 34.5681 9.03484 34.4538 10.4767C34.3541 11.773 33.768 12.9818 33.0117 14.0232C30.3367 17.6643 27.6204 21.2642 24.9867 24.9198C23.3306 27.4419 22.0928 30.6704 23.0413 33.6731C23.5276 33.6731 23.7708 32.9692 24.3204 33.0735C25.3126 33.241 25.6725 34.6805 24.9478 35.3383C24.7389 35.5025 24.4797 35.5897 24.2139 35.5853C23.9481 35.5809 23.692 35.4851 23.4887 35.314C22.7901 34.75 22.332 33.9423 22.2071 33.0541C21.8178 30.6207 22.1933 28.1267 23.282 25.9151C24.0651 24.2402 25.2275 22.7886 26.0518 21.1331C26.6525 19.8781 26.7376 18.3027 25.9765 17.0939C25.2688 15.9287 23.9532 15.266 22.6351 15.0621C18.8238 14.4448 14.9168 15.2059 11.6177 17.2085C8.31862 19.2111 5.8441 22.3235 4.63971 25.9855C3.98359 28.0994 3.75598 30.3226 3.97018 32.5252C4.18437 34.7279 4.83608 36.8659 5.88723 38.8144C7.69641 42.1459 10.6432 44.7187 14.1919 46.0651C17.0454 47.1416 20.137 47.4301 23.141 46.9001C24.9916 46.4777 26.8933 45.8782 28.3329 44.5916C29.184 43.8488 29.719 42.8293 30.1057 41.7855C31.5283 43.293 32.9874 44.7713 34.3881 46.3005C33.2071 46.4209 32.0806 46.8569 31.127 47.5628C27.9694 49.7186 24.2517 50.9111 20.4271 50.9951C15.0956 51.0819 9.94606 49.061 6.10123 45.3732C0.636943 40.2271 -1.36931 31.8695 0.948215 24.7596C1.77519 22.318 3.051 20.0517 4.71023 18.077C5.16985 17.5696 5.28414 16.8875 5.40816 16.2418C5.59055 15.2175 6.16446 14.3266 6.43925 13.3289C5.56623 13.6688 4.73698 14.0839 3.84451 14.4067C4.74428 12.0327 6.2593 9.76549 8.53062 8.51295C9.60548 7.88182 10.8287 7.60752 12.0251 7.29924C11.2056 5.84279 9.76598 4.87182 8.36525 4.02708C10.0432 2.71628 12.2951 2.30604 14.3694 2.65559C16.5045 2.9663 18.4378 3.98582 20.286 5.04174C20.0428 3.20176 18.8707 1.68463 18.1728 0Z" fill="#FF0000"/>
<path d="M130 16.2952C129.944 18.0648 129.973 19.8393 129.985 21.6089C129.455 21.1889 128.864 20.7641 128.147 20.8345C126.294 20.8879 124.438 20.769 122.59 20.8952C122.466 23.4246 122.564 25.9636 122.546 28.4954C124.48 28.5464 126.416 28.5828 128.346 28.4566C128.327 29.5198 128.368 30.5854 128.303 31.6486C126.406 31.304 124.472 31.503 122.559 31.4981C122.512 33.8066 122.529 36.1102 122.544 38.426C123.76 38.5522 124.976 38.46 126.204 38.4842C127.498 38.4357 129.035 38.8192 129.983 37.6759C129.964 39.4018 129.983 41.1301 129.983 42.856C129.528 42.4846 129.037 42.0744 128.41 42.1278C125.005 42.1448 121.618 42.0962 118.225 42.1496C119.105 41.7127 119.402 40.7417 119.312 39.8169C119.276 32.8526 119.312 25.886 119.288 18.9217C119.354 18.1182 118.726 17.5915 118.179 17.123C121.598 17.123 125.017 17.14 128.439 17.123C129.095 17.2128 129.601 16.7637 130 16.2952Z" fill="#FF0000"/>
<path d="M31.9978 17.4434C35.1106 17.3415 38.2257 17.4288 41.3409 17.3949C42.8 17.3682 44.3782 17.674 45.492 18.6935C46.8416 19.9267 47.4058 21.7982 47.5225 23.5726C47.6612 25.9151 46.3066 28.4275 43.9502 29.1338C45.6792 32.5104 47.4715 35.8554 49.2832 39.1882C49.9373 40.3461 50.949 41.2321 51.856 42.186C49.4121 42.1618 46.9681 42.2079 44.5241 42.186C44.6262 40.8558 44.6092 39.4406 43.8821 38.2682C42.3403 35.683 40.7621 33.1342 39.2033 30.5854C39.0404 30.0999 38.5735 30.2602 38.1868 30.3087C38.0993 32.6754 38.1138 35.0446 38.0579 37.4138C38.0433 38.3726 37.9923 39.3775 38.3935 40.2757C38.6926 41.0427 39.3152 41.6083 39.8988 42.1642C37.2238 42.1351 34.5488 42.1278 31.8738 42.1642C33.1189 41.2127 33.7025 39.6615 33.6588 38.125C33.6417 32.2992 33.6588 26.4734 33.6466 20.6476C33.7269 19.3368 32.9754 18.2202 31.9978 17.4434ZM38.1892 21.0845C38.1625 22.9512 38.0749 24.8276 38.2452 26.6894C40.0569 26.5001 41.9829 26.0704 43.3933 24.847C44.743 23.7498 43.9526 20.9049 42.068 21.0481C40.7743 21.0408 39.4781 20.9971 38.1795 21.0821L38.1892 21.0845Z" fill="#FF0000"/>
<path d="M62.0113 17.5745C64.6052 17.6101 67.2065 17.6101 69.815 17.5745C68.9322 18.1595 67.9741 18.9945 68.1127 20.1694C68.1687 21.1938 69.1244 21.7472 69.8734 22.2764C71.7945 23.6066 73.4651 25.2476 75.1504 26.8545C75.1966 24.4562 75.2161 22.0555 75.1504 19.6572C75.1723 18.628 74.2214 18.0406 73.4481 17.5745C76.0477 17.606 78.6498 17.6109 81.2494 17.5745C80.712 17.9605 80.0967 18.3173 79.7903 18.9314C79.428 19.599 79.445 20.3879 79.4426 21.1161C79.5106 27.1846 79.4596 33.2532 79.4742 39.3217C79.4085 40.5597 80.2037 41.6035 81.2372 42.2031C78.6984 42.1788 76.1596 42.2031 73.6232 42.2031C74.2847 41.6399 74.9948 40.9893 75.1212 40.0912C75.5054 37.8725 74.8561 35.5981 73.774 33.6634C72.3368 31.0466 70.5226 28.5998 68.2319 26.7016C68.0714 27.8303 68.1832 28.9712 68.1589 30.1C68.1784 33.3381 68.1103 36.5812 68.1589 39.8096C68.176 40.8753 68.9614 41.6763 69.8199 42.1958C67.2737 42.1691 64.7276 42.1763 62.1815 42.1958C62.6679 41.7103 63.2369 41.2394 63.4971 40.5743C63.8108 39.7999 63.8254 38.9479 63.823 38.1226C63.7857 32.3728 63.7857 26.6207 63.823 20.8661C63.823 20.1524 63.789 19.3902 63.4047 18.7639C63.1032 18.2202 62.522 17.9168 62.0113 17.5745Z" fill="#FF0000"/>
<path d="M82.4799 17.5769C85.0649 17.623 87.6548 17.6158 90.2398 17.5769C89.289 18.1983 88.5375 19.1766 88.5497 20.3612C88.5303 22.6624 88.5302 24.9733 88.5765 27.2696C90.3103 24.8422 91.8716 22.2958 93.5082 19.8029C94.1818 18.8562 93.085 18.1037 92.4212 17.5818C95.0961 17.6158 97.7711 17.6085 100.446 17.5818C99.6218 18.174 98.9158 18.915 98.3645 19.7664C96.9054 22.1769 95.4001 24.5606 93.9021 26.9467C93.5665 27.505 92.9853 28.1605 93.4425 28.828C94.9478 31.8623 96.4823 34.8844 97.973 37.9284C98.7269 39.5377 99.6023 41.2078 101.176 42.1642C98.5007 42.2662 95.8427 42.1642 93.175 42.2152C93.7465 41.7297 94.7922 41.2078 94.3909 40.3C93.068 37.5327 91.5579 34.8553 90.2009 32.1026C90.0185 31.8598 89.9067 31.3743 89.52 31.4666C89.1966 31.6915 88.9371 31.9962 88.7666 32.351C88.5961 32.7057 88.5206 33.0985 88.5473 33.4911C88.6081 35.5228 88.5303 37.5594 88.574 39.5912C88.574 40.7442 89.396 41.6302 90.3152 42.2103C87.7156 42.2103 85.1135 42.1958 82.5139 42.2103C83.0003 41.8389 83.5523 41.504 83.8296 40.9384C84.2138 40.2101 84.1895 39.3751 84.1992 38.5862C84.1408 32.5177 84.17 26.4491 84.1992 20.3806C84.2527 19.1766 83.4769 18.1668 82.4799 17.5769Z" fill="#FF0000"/>
<path d="M102.413 17.606C104.991 17.6303 107.571 17.657 110.149 17.5915C109.648 17.9289 109.074 18.2347 108.809 18.8052C108.483 19.4509 108.5 20.1888 108.495 20.8903C108.518 26.2306 108.518 31.5653 108.495 36.8943C108.549 37.2657 108.367 37.9235 108.926 37.9696C109.916 37.9939 110.908 37.9696 111.9 37.9381C111.939 36.052 111.956 34.1586 111.888 32.2749C111.856 31.4957 111.19 31.0151 110.64 30.5757C112.622 30.532 114.607 30.549 116.591 30.5757C116.199 30.9447 115.696 31.27 115.55 31.8186C115.343 32.605 115.433 33.4279 115.424 34.2314C115.46 36.1733 115.397 38.1153 115.436 40.0572C115.399 40.9723 116.066 41.6472 116.747 42.1545C111.975 42.1084 107.202 42.1157 102.43 42.1545C103.009 41.8236 103.482 41.3374 103.797 40.7512C104.111 40.1649 104.255 39.5023 104.211 38.8386C104.194 32.6075 104.223 26.3739 104.194 20.1475C104.228 18.9945 103.406 18.077 102.413 17.606Z" fill="#FF0000"/>
<path d="M18.7979 17.8051C20.5002 17.0769 22.628 18.1498 23.1387 19.9072C23.7515 21.6792 22.4967 23.7644 20.6704 24.1042C18.9682 24.4951 17.1394 23.3032 16.7795 21.6258C16.3807 20.0796 17.317 18.3731 18.7979 17.8051Z" fill="#FF0000"/>
<path d="M53.1036 17.623C55.6472 17.5963 58.1909 17.623 60.7346 17.623C60.249 18.0115 59.8582 18.5051 59.592 19.0665C59.3257 19.628 59.1909 20.2425 59.1977 20.8636C59.1669 26.7768 59.1296 32.6908 59.0858 38.6056C59.0396 40.0402 59.8032 41.3462 60.8975 42.2298C58.259 42.2176 55.6205 42.2128 52.982 42.2298C53.5106 41.7902 53.9357 41.2397 54.227 40.6175C54.5183 39.9953 54.6686 39.3167 54.6672 38.6299C54.6867 32.957 54.6672 27.2817 54.6672 21.6089C54.6672 20.8127 54.7037 19.9898 54.4046 19.2373C54.1711 18.56 53.5948 18.1037 53.1036 17.623Z" fill="#FF0000"/>
</svg>
